<svg width="246.560009765625" height="62.485121032945266" viewBox="0 0 369.7695137611495 93.70981467603762" class="css-1j8o68f"><defs id="SvgjsDefs1372"></defs><g id="SvgjsG1373" featurekey="hmhgWD-0" transform="matrix(1.313170349836703,0,0,1.313170349836703,-18.452350470124415,-18.43492017571374)" fill="#40a8c4"><path xmlns="http://www.w3.org/2000/svg" fill-rule="evenodd" clip-rule="evenodd" fill="#40a8c4" d="M57.8,35.5c0.2-0.4-1.6-1.3-1.7-1C55.9,34.9,57.6,35.9,57.8,35.5z   M58.9,34.4c0.3-0.3-0.9-1.8-1.2-1.6C57.3,33,58.6,34.6,58.9,34.4z M83.8,56.8l-11.4-6.6l11.5-6.5c1.1-0.6,1.5-2,0.8-3.2l-9-15.7  c-0.6-1.1-2.1-1.5-3.2-0.8l-11.4,6.5l0.1-13.2c0-1.3-1-2.3-2.3-2.4l-18.2-0.1c-1.3,0-2.4,1.1-2.4,2.4l-0.1,13.1l-11.4-6.6  c-1.1-0.7-2.6-0.3-3.2,0.8L14.5,40c-0.7,1.1-0.3,2.6,0.8,3.2l11.4,6.7l-11.5,6.5c-1.1,0.6-1.5,2.1-0.8,3.2l9,15.7  c0.6,1.2,2.1,1.5,3.2,0.9L38,69.7l-0.1,13.2c0,1.3,1,2.4,2.3,2.4l18.2,0.1c1.3,0,2.4-1,2.4-2.3l0.1-13.2l11.4,6.6  c1.1,0.7,2.6,0.3,3.2-0.8L84.6,60C85.3,58.9,84.9,57.5,83.8,56.8z M59,35.5c-0.7,0.8-2.5,0.5-4.1-0.8c-1.6-1.3-2.4-3-1.7-3.8  c0.7-0.8,2.5-0.5,4.1,0.8C58.9,32.9,59.7,34.6,59,35.5z M48.8,80l-0.1-9.9c0.4,0.2,0.9,0.4,1.3,0.8c0.1,0.2-0.2,7.6-0.2,9.2L48.8,80  z M50.3,47.5l0.3,0.1l-0.4,15.2c-0.1,0-1.2-0.6-1.6-0.8c0-0.1-0.2-12.8-0.2-15.4C49,47,49.7,47.2,50.3,47.5z M54.4,69.2  c1.1,2.7,0.2,5.9-2.4,7.3l0-1.9c0-0.2,0.4-0.6,0.5-0.8c0.1-0.3,0.2-0.6,0.2-0.9c0-0.4,0-0.7,0-1c-0.4-3-3.4-3.8-5.8-5  c-1.3-0.6-2.6-1.3-3.5-2.4c-0.9-1.1-1.4-2.5-1.5-3.9c-0.2-3,1.6-5.4,4.3-6.7l0,3l0,0.5c0,0.1-0.7,0.6-0.7,0.8  c-0.6,0.9-0.7,2.1-0.5,3c0.4,2.1,2.8,2.9,4.5,3.8C51.5,66,53.6,67.2,54.4,69.2z M48.3,38.1l-0.1-11c-1.3-0.6-2.3-1.9-2.2-3.4  c0-2,1.7-3.7,3.7-3.7c2.1,0,3.8,1.7,3.8,3.8c0,1.5-1,2.8-2.3,3.4l-0.3,12.2C49.9,39,49,38.7,48.3,38.1z M56,52  c-0.8,1.3-2,2.2-3.4,2.8l0-2c0-0.5-0.2-1.6,0.2-1.9c0.9-1,1.2-2.8,0.3-3.9c-0.9-1.3-2.9-1.9-4.3-2.4c-2.9-1.2-5.8-2.7-6.6-6  c-0.7-3.2,0.7-6.6,3.7-8l0.1,3.6c0,0.2-0.2,0.4-0.4,0.6c-0.1,0.3-0.3,0.6-0.3,0.9c-0.1,0.5-0.1,0.9-0.1,1.4c0.1,1.5,1,2.5,2.2,3.3  c2.3,1.4,5.1,1.8,7.3,3.6C57.1,45.8,57.6,49.3,56,52z M47,76.7l0,1c-0.5,0-1.1-0.1-1.7-0.1c-0.4,0-0.3-0.1-0.3-0.6  c0-0.3,0.5-0.2,0.7-0.2C46.2,76.8,46.6,76.8,47,76.7z"></path></g><g id="SvgjsG1374" featurekey="1RRcwp-0" transform="matrix(1.8584938256741592,0,0,1.8584938256741592,110.58395767214402,23.112813414580778)" fill="#235784"><path d="M6.08 20 l-4.78 0 l0 -14.24 l4.78 0 c4.02 0 7.3 3.2 7.3 7.12 s-3.28 7.12 -7.3 7.12 z M3.96 17.38 l2.12 0 c2.56 0 4.64 -2.02 4.64 -4.5 s-2.08 -4.5 -4.64 -4.5 l-2.12 0 l0 9 z M23.880000000000003 20 l-2.52 0 l0 -4.9 c0 -1.08 -0.86 -1.92 -1.94 -1.92 c-1.04 0 -1.94 0.86 -1.94 1.92 l0 4.9 l-2.5 0 l0 -14.68 l2.5 0 l0 6.18 c0.62 -0.62 1.28 -0.84 1.94 -0.84 c1.2 0 2.32 0.46 3.16 1.28 c0.84 0.86 1.3 1.98 1.3 3.16 l0 4.9 z M30.240000000000002 20.18 c-1.26 0 -2.46 -0.48 -3.38 -1.38 c-0.9 -0.92 -1.4 -2.12 -1.4 -3.38 s0.5 -2.46 1.4 -3.38 c0.9 -0.9 2.1 -1.38 3.38 -1.38 c0.84 0 1.6 0.3 2.26 0.9 l0.1 0.08 l0 -0.8 l2.42 0 l0 9.16 l-2.42 0 l0 -0.72 l-0.1 0.1 c-0.72 0.7 -1.54 0.8 -2.26 0.8 z M30.240000000000002 13 c-1.28 0 -2.36 1.12 -2.36 2.42 c0 1.32 1.08 2.42 2.36 2.42 s2.36 -1.1 2.36 -2.42 c0 -1.3 -1.08 -2.42 -2.36 -2.42 z M48.019999999999996 20 l-2.2 0 l-2.5 -4.4 l-2.48 4.4 l-2.22 0 l-1.72 -9.16 l2.38 0 l1.04 5.48 l1.92 -3.38 l2.16 0 l1.94 3.38 l1.04 -5.48 l2.36 0 z M55.56 20.18 c-1.26 0 -2.46 -0.48 -3.38 -1.38 c-0.9 -0.92 -1.4 -2.12 -1.4 -3.38 s0.5 -2.46 1.4 -3.38 c0.9 -0.9 2.1 -1.38 3.38 -1.38 c0.84 0 1.6 0.3 2.26 0.9 l0.1 0.08 l0 -0.8 l2.42 0 l0 9.16 l-2.42 0 l0 -0.72 l-0.1 0.1 c-0.72 0.7 -1.54 0.8 -2.26 0.8 z M55.56 13 c-1.28 0 -2.36 1.12 -2.36 2.42 c0 1.32 1.08 2.42 2.36 2.42 s2.36 -1.1 2.36 -2.42 c0 -1.3 -1.08 -2.42 -2.36 -2.42 z M71.72 20 l-2.52 0 l0 -4.9 c0 -1.08 -0.86 -1.92 -1.94 -1.92 c-1.04 0 -1.94 0.86 -1.94 1.92 l0 4.9 l-2.5 0 l0 -9.16 l2.5 0 l0 0.66 c0.62 -0.62 1.28 -0.84 1.94 -0.84 c1.2 0 2.32 0.46 3.16 1.28 c0.84 0.86 1.3 1.98 1.3 3.16 l0 4.9 z M84.3 20 l-2.2 0 l-2.5 -4.4 l-2.48 4.4 l-2.22 0 l-1.72 -9.16 l2.38 0 l1.04 5.48 l1.92 -3.38 l2.16 0 l1.94 3.38 l1.04 -5.48 l2.36 0 z M91.84 20.18 c-1.26 0 -2.46 -0.48 -3.38 -1.38 c-0.9 -0.92 -1.4 -2.12 -1.4 -3.38 s0.5 -2.46 1.4 -3.38 c0.9 -0.9 2.1 -1.38 3.38 -1.38 c0.84 0 1.6 0.3 2.26 0.9 l0.1 0.08 l0 -0.8 l2.42 0 l0 9.16 l-2.42 0 l0 -0.72 l-0.1 0.1 c-0.72 0.7 -1.54 0.8 -2.26 0.8 z M91.84 13 c-1.28 0 -2.36 1.12 -2.36 2.42 c0 1.32 1.08 2.42 2.36 2.42 s2.36 -1.1 2.36 -2.42 c0 -1.3 -1.08 -2.42 -2.36 -2.42 z M108 20 l-2.52 0 l0 -4.9 c0 -1.08 -0.86 -1.92 -1.94 -1.92 c-1.04 0 -1.94 0.86 -1.94 1.92 l0 4.9 l-2.5 0 l0 -9.16 l2.5 0 l0 0.66 c0.62 -0.62 1.28 -0.84 1.94 -0.84 c1.2 0 2.32 0.46 3.16 1.28 c0.84 0.86 1.3 1.98 1.3 3.16 l0 4.9 z M116.26 20 l-2.4 0 c-0.88 0 -1.7 -0.34 -2.3 -0.94 c-0.62 -0.62 -0.94 -1.42 -0.94 -2.3 l0 -3.8 l-1.28 0 l0 -2.06 l1.28 0 l0 -3.6 l2.38 0 l0 3.6 l2.66 0 l0 2.06 l-2.66 0 l0 3.76 c0 0.5 0.44 0.96 0.88 0.96 l1.74 0 z M121.74 20.18 c-1.26 0 -2.46 -0.48 -3.38 -1.38 c-0.9 -0.92 -1.4 -2.12 -1.4 -3.38 s0.5 -2.46 1.4 -3.38 c0.9 -0.9 2.1 -1.38 3.38 -1.38 c0.84 0 1.6 0.3 2.26 0.9 l0.1 0.08 l0 -0.8 l2.42 0 l0 9.16 l-2.42 0 l0 -0.72 l-0.1 0.1 c-0.72 0.7 -1.54 0.8 -2.26 0.8 z M121.74 13 c-1.28 0 -2.36 1.12 -2.36 2.42 c0 1.32 1.08 2.42 2.36 2.42 s2.36 -1.1 2.36 -2.42 c0 -1.3 -1.08 -2.42 -2.36 -2.42 z M131.56 20 l-2.52 0 l0 -9.16 l2.52 0 l0 0.74 c0.72 -0.72 1.8 -0.96 2.52 -0.96 l0.6 0 l-0.6 2.5 l-0.38 0 c-1.18 0 -2.14 0.92 -2.14 2.02 l0 4.86 z M139.21999999999997 20 l-2.6 0 l0 -9.16 l2.6 0 l0 9.16 z M137.92 9.74 c-0.86 0 -1.56 -0.7 -1.56 -1.54 c0 -0.42 0.16 -0.8 0.46 -1.08 c0.3 -0.3 0.68 -0.46 1.1 -0.46 c0.84 0 1.54 0.7 1.54 1.54 s-0.7 1.54 -1.54 1.54 z"></path></g></svg>